<?xml version="1.0" encoding="UTF-8"?>
<svg width="48px" height="42px" viewBox="0 0 48 42" version="1.1" xmlns="http://www.w3.org/2000/svg" xmlns:xlink="http://www.w3.org/1999/xlink">
  <g>
    <path d="M15.5624564,28.3333948 L40.9690013,28.3333948 C41.59815,28.3333948 42.1500282,27.9143021 42.3203159,27.3055848 L47.9456663,7.47209779 C48.0665156,7.04451994 47.9837521,6.58521496 47.7175175,6.22994545 C47.4509167,5.87578263 47.0363671,5.66660518 46.5939855,5.66660518 L12.3160055,5.66660518 L11.3107593,1.10971018 C11.1679374,0.460780567 10.59665,0 9.93747213,0 L1.40624606,0 C0.629148673,0 0,0.633803934 0,1.4166513 C0,2.19986765 0.629148673,2.83330259 1.40624606,2.83330259 L8.80881323,2.83330259 L13.887046,25.8538862 C12.3929096,26.5083496 11.3437182,28.0065321 11.3437182,29.7500461 C11.3437182,32.0934235 13.236291,34 15.5624564,34 L40.9690013,34 C41.746465,34 42.3752473,33.3665651 42.3752473,32.5833487 C42.3752473,31.8005013 41.746465,31.1666974 40.9690013,31.1666974 L15.5624564,31.1666974 C14.7879224,31.1666974 14.1562103,30.5317868 14.1562103,29.7500461 C14.1562103,28.9683054 14.7879224,28.3333948 15.5624564,28.3333948 Z" id="Path"></path>
    <path d="M14,38 C14,40.2059028 15.7943666,42 18.0001736,42 C20.2056334,42 22,40.2059028 22,38 C22,35.7944444 20.2056334,34 18.0001736,34 C15.7943666,34 14,35.7944444 14,38 Z" id="Path"></path>
    <path d="M34,38 C34,40.2059028 35.7944444,42 38,42 C40.2059028,42 42,40.2059028 42,38 C42,35.7944444 40.2059028,34 38,34 C35.7944444,34 34,35.7944444 34,38 Z" id="Path"></path>
  </g>
</svg>