<?xml version="1.0" encoding="UTF-8"?>
<svg width="29px" height="36px" viewBox="0 0 29 36" version="1.1" xmlns="http://www.w3.org/2000/svg" xmlns:xlink="http://www.w3.org/1999/xlink">
  <g>
    <path d="M26.2115385,4.63157895 L20.0769231,4.63157895 L20.0769231,3.47368421 C20.0769231,1.55519737 18.5788221,0 16.7307692,0 L12.2692308,0 C10.4211779,0 8.92307692,1.55519737 8.92307692,3.47368421 L8.92307692,4.63157895 L2.78846154,4.63157895 C1.24846394,4.63157895 0,5.927625 0,7.52631579 L0,9.84210526 C0,10.481625 0.49934375,11 1.11538462,11 L27.8846154,11 C28.5006562,11 29,10.481625 29,9.84210526 L29,7.52631579 C29,5.927625 27.7515361,4.63157895 26.2115385,4.63157895 Z M11.1538462,3.47368421 C11.1538462,2.83539474 11.654375,2.31578947 12.2692308,2.31578947 L16.7307692,2.31578947 C17.345625,2.31578947 17.8461538,2.83539474 17.8461538,3.47368421 L17.8461538,4.63157895 L11.1538462,4.63157895 L11.1538462,3.47368421 Z" id="Shape"></path>
    <path d="M2.355885,13 C2.15266635,13 1.99073205,13.167311 2.00041251,13.3672988 L2.93998736,32.7940244 C3.02682686,34.5919512 4.52587582,36 6.35235239,36 L23.6476476,36 C25.4741242,36 26.9731731,34.5919512 27.0600126,32.7940244 L27.9995875,13.3672988 C28.009268,13.167311 27.8473337,13 27.644115,13 L2.355885,13 Z M19.5555144,15.804878 C19.5555144,15.185 20.0651626,14.6829268 20.694393,14.6829268 C21.3236235,14.6829268 21.8332716,15.185 21.8332716,15.804878 L21.8332716,30.3902439 C21.8332716,31.010122 21.3236235,31.5121951 20.694393,31.5121951 C20.0651626,31.5121951 19.5555144,31.010122 19.5555144,30.3902439 L19.5555144,15.804878 Z M13.8611214,15.804878 C13.8611214,15.185 14.3707696,14.6829268 15,14.6829268 C15.6292304,14.6829268 16.1388786,15.185 16.1388786,15.804878 L16.1388786,30.3902439 C16.1388786,31.010122 15.6292304,31.5121951 15,31.5121951 C14.3707696,31.5121951 13.8611214,31.010122 13.8611214,30.3902439 L13.8611214,15.804878 Z M8.16672837,15.804878 C8.16672837,15.185 8.67637654,14.6829268 9.30560697,14.6829268 C9.9348374,14.6829268 10.4444856,15.185 10.4444856,15.804878 L10.4444856,30.3902439 C10.4444856,31.010122 9.9348374,31.5121951 9.30560697,31.5121951 C8.67637654,31.5121951 8.16672837,31.010122 8.16672837,30.3902439 L8.16672837,15.804878 Z" id="Shape"></path>
  </g>
</svg>